<svg width="39" height="39" viewBox="0 0 39 39" fill="none" xmlns="http://www.w3.org/2000/svg">
<path d="M25.5176 2.93263C24.116 3.17638 22.7373 3.65626 21.5947 4.31134C20.9701 4.66935 19.7209 5.57579 19.4695 5.85001C19.3324 6.00997 19.3324 6.00235 18.9059 5.65958C17.55 4.55509 15.8057 3.74005 13.909 3.33634C12.8502 3.10782 10.6793 3.09259 9.55958 3.30587C7.1754 3.74767 5.13399 4.82931 3.42774 6.54317C1.73672 8.24181 0.716021 10.1309 0.220904 12.4922C-0.0076117 13.5738 -0.0304633 15.7524 0.182818 16.834C0.388482 17.8928 0.784576 19.043 1.25684 19.9951C2.10997 21.6785 2.16329 21.7471 8.91212 28.4959C13.0254 32.6168 15.2801 34.8258 15.6 35.0391C16.2094 35.4428 17.0397 35.8389 17.6338 35.9988C17.908 36.075 18.5098 36.1359 19.1191 36.1588C19.9875 36.1893 20.2541 36.174 20.8178 36.0369C21.6328 35.8465 22.4707 35.4656 23.1029 35.0086C23.3619 34.8258 26.4774 31.7637 30.0193 28.2065C36.9891 21.2215 36.9434 21.2672 37.766 19.6066C39.6779 15.7752 39.3123 11.0983 36.8367 7.67813C36.3645 7.02306 35.8998 6.89357 35.4885 7.30489C35.1381 7.65528 35.1838 7.94474 35.6941 8.70646C36.89 10.4736 37.4309 12.2484 37.4309 14.3965C37.4309 16.5826 36.9129 18.3193 35.7094 20.1246C35.3514 20.6578 34.7953 21.2748 33.4471 22.6383L31.6494 24.4512L31.2076 24.0779C30.9563 23.8723 30.5525 23.5904 30.3088 23.4533C29.5623 23.0268 29.5852 23.0801 29.9889 22.7525C31.9389 21.1986 32.5025 18.3727 31.3219 16.1104C30.9563 15.4096 29.9356 14.3736 29.25 14.0004C28.3359 13.4977 27.8104 13.3682 26.7363 13.3682C26.2107 13.3682 25.6471 13.3986 25.4719 13.4291L25.1596 13.49L24.9234 13.0102C23.2553 9.6586 18.9592 8.59982 15.8818 10.7783C15.044 11.3725 14.0461 12.6065 13.8252 13.3149C13.7871 13.4596 13.7338 13.4824 13.6119 13.4443C13.5205 13.4139 13.0559 13.3758 12.5836 13.3529C11.5324 13.2996 10.9231 13.4291 9.97852 13.8861C9.45294 14.1375 9.20157 14.3356 8.6379 14.8916C8.06661 15.4553 7.88379 15.6914 7.62481 16.2246C7.45723 16.5826 7.25919 17.093 7.18301 17.3672C7.01544 18.0223 7.01544 19.2334 7.19063 19.8809C7.47247 20.9701 8.18848 22.1203 8.95782 22.7221C9.42247 23.0801 9.44532 23.0268 8.67598 23.4609C8.417 23.6057 7.9752 23.9256 7.69337 24.1617L7.1754 24.5883L5.43106 22.8287C3.64864 21.0234 3.16114 20.4141 2.58985 19.2715C1.01309 16.118 1.22637 12.2104 3.13829 9.28536C4.76075 6.79454 7.16778 5.24063 10.1309 4.75314C11.0068 4.60841 12.8426 4.65411 13.6881 4.83693C15.4705 5.2254 17.032 6.01759 18.3574 7.19825C19.2715 8.00567 19.3934 8.01329 20.2389 7.22872C21.907 5.67482 23.5676 4.82931 25.6928 4.45607C26.7059 4.27325 28.6863 4.32657 29.6156 4.56271C30.4535 4.77599 30.7354 4.76837 30.9639 4.53985C31.3066 4.18946 31.2914 3.68673 30.9182 3.41251C30.7049 3.25255 29.8061 3.01642 28.9834 2.90216C28.2065 2.7879 26.226 2.81075 25.5176 2.93263ZM20.5588 11.2811C21.3281 11.4715 22.0213 11.8752 22.6688 12.5227C23.8342 13.6957 24.2836 15.1506 23.9561 16.7121C23.6057 18.3574 22.227 19.7971 20.5893 20.2236C20.0256 20.3684 18.8906 20.3684 18.3193 20.2236C16.8645 19.8428 15.699 18.8068 15.143 17.4053C14.8383 16.6283 14.7621 15.4858 14.9602 14.7012C15.4172 12.8807 16.933 11.4867 18.7688 11.1897C19.2182 11.1211 20.0561 11.1668 20.5588 11.2811ZM13.0787 14.8992L13.3072 14.9449L13.3529 15.9428C13.3758 16.6893 13.4291 17.0854 13.5586 17.4815C13.8938 18.5326 14.5107 19.5381 15.2268 20.2084L15.6229 20.574L15.4629 20.833C15.1354 21.3586 14.3432 21.9527 13.6348 22.2041C11.7457 22.8744 9.56719 21.8918 8.84356 20.0408C7.87618 17.5881 9.68145 14.8611 12.2713 14.8535C12.5912 14.8535 12.9568 14.8764 13.0787 14.8992ZM27.7418 15.0059C30.4307 15.8361 31.299 19.2106 29.349 21.2596C27.7342 22.9582 24.8549 22.7449 23.5371 20.833L23.3086 20.4979L23.5523 20.315C23.9332 20.0104 24.6492 19.0658 24.9387 18.4717C25.3652 17.5957 25.5252 16.9178 25.5557 15.8818L25.5785 14.9678L25.7994 14.9221C26.2869 14.8078 27.2543 14.8535 27.7418 15.0059ZM21.2063 22.1279C23.4381 22.7221 25.251 24.4512 25.9594 26.6602C26.2031 27.4066 26.2793 27.9703 26.2793 28.9377V29.8213L25.0986 31.002L23.918 32.1826V31.4057C23.918 30.9639 23.8799 30.5449 23.8266 30.4307C23.7275 30.2098 23.4076 30.0117 23.1563 30.0117C22.9354 30.0117 22.5774 30.2098 22.5012 30.3697C22.4631 30.4459 22.4174 31.2229 22.3945 32.0988L22.3565 33.6832L21.8613 33.9803C21.1225 34.4297 20.5207 34.5973 19.5305 34.643C18.5326 34.6811 17.9918 34.5668 17.1387 34.1402L16.5674 33.8584L16.5293 32.1598L16.4912 30.4535L16.2398 30.2326C15.9047 29.9279 15.5315 29.9279 15.2268 30.2326L15.0059 30.4535V31.4361V32.4111L13.7795 31.1924L12.5531 29.9736L12.5988 28.8691C12.6522 27.4904 12.8273 26.7211 13.3301 25.708C14.6022 23.141 17.1844 21.709 20.1094 21.9527C20.4674 21.9832 20.9625 22.0594 21.2063 22.1279ZM12.4922 24.0399C12.4922 24.0703 12.3703 24.2836 12.2256 24.5274C11.6543 25.4719 11.2277 26.7592 11.144 27.818C11.1211 28.1455 11.0754 28.4121 11.0525 28.4121C11.0297 28.4121 10.3898 27.7951 9.63575 27.041L8.26465 25.6623L8.53126 25.4338C9.59004 24.535 10.8469 24.0094 11.9818 24.0018C12.2637 23.9941 12.4922 24.017 12.4922 24.0399ZM28.3359 24.2227C29.1205 24.4893 29.8061 24.8701 30.385 25.3652L30.5754 25.5252L29.2043 26.8963L27.8408 28.2598L27.719 27.4981C27.5209 26.3098 27.0715 25.1139 26.4926 24.2303L26.325 23.9713L27.0867 24.017C27.5514 24.0399 28.0313 24.1236 28.3359 24.2227Z" fill="black"/>
<path d="M33.1195 4.84454C32.4721 5.19493 32.7311 6.2461 33.4623 6.2461C33.7898 6.2461 34.1631 5.95665 34.224 5.65958C34.2773 5.35489 34.1022 4.98165 33.8279 4.84454C33.5461 4.6922 33.3861 4.6922 33.1195 4.84454Z" fill="black"/>
</svg>
