<svg width="18" height="14" viewBox="0 0 18 14" fill="none" xmlns="http://www.w3.org/2000/svg">
<path d="M3.41354 13.3815V12.1315H4.69062L6.29646 6.74854C6.3916 6.41937 6.57375 6.15785 6.84292 5.96396C7.11222 5.77007 7.41139 5.67313 7.74042 5.67313H10.1762C10.5053 5.67313 10.8044 5.77007 11.0737 5.96396C11.3429 6.15785 11.5251 6.41937 11.6202 6.74854L13.226 12.1315H14.5031V13.3815H3.41354ZM6.00792 12.1315H11.9087L10.4167 7.1075C10.4007 7.04861 10.37 7.00319 10.3246 6.97125C10.2792 6.93917 10.2271 6.92313 10.1683 6.92313H7.74833C7.68958 6.92313 7.6375 6.93917 7.59208 6.97125C7.54667 7.00319 7.51597 7.04861 7.5 7.1075L6.00792 12.1315ZM8.33333 3.75V0H9.58333V3.75H8.33333ZM13.0833 5.72438L12.1923 4.83333L14.8542 2.19229L15.7244 3.0625L13.0833 5.72438ZM14.1667 9.58333V8.33333H17.9167V9.58333H14.1667ZM4.83333 5.72438L2.19229 3.0625L3.0625 2.19229L5.72437 4.83333L4.83333 5.72438ZM0 9.58333V8.33333H3.75V9.58333H0Z" fill="#EE1162" fill-opacity="0.8"/>
</svg>
