<svg width="32" height="32" viewBox="0 0 32 32" fill="none" xmlns="http://www.w3.org/2000/svg">
<path d="M15.6937 0.0749998C15.6125 0.11875 15.4812 0.2375 15.4125 0.33125C15.2875 0.5 15.2812 0.5875 15.2625 2.68125C15.2437 5.1125 15.2625 5.24375 15.6187 5.48125C15.8875 5.6625 16.1125 5.6625 16.3812 5.48125C16.725 5.25 16.7437 5.125 16.7437 2.79375C16.75 0.5625 16.7375 0.41875 16.45 0.16875C16.2875 0.0187497 15.8875 -0.03125 15.6937 0.0749998Z" fill="#DD2A7B"/>
<path d="M27.0313 4.375C26.8 4.46875 23.8875 7.45625 23.8438 7.6375C23.7563 7.99375 23.9938 8.39375 24.35 8.49375C24.7563 8.60625 24.9375 8.475 26.5125 6.89375C27.7563 5.64375 27.9938 5.36875 28.0313 5.175C28.1375 4.60625 27.5688 4.15 27.0313 4.375Z" fill="#DD2A7B"/>
<path d="M4.33754 4.71251C4.05629 4.99376 4.04379 5.31251 4.30629 5.66251C4.51879 5.95001 7.02504 8.43751 7.25004 8.58751C7.44379 8.71251 7.70004 8.71876 7.93754 8.59376C8.20004 8.45626 8.31254 8.26251 8.31254 7.93751V7.65626L6.73129 6.08126L5.15629 4.50001H4.85004C4.59379 4.50001 4.51879 4.53126 4.33754 4.71251Z" fill="#DD2A7B"/>
<path d="M14.3563 7.81875C11.0063 8.40625 8.65002 10.7125 7.86252 14.175C7.72502 14.7688 7.72502 14.875 7.70627 20.2313L7.68127 25.6875H16H24.3188L24.2938 20.2313C24.275 14.875 24.275 14.7688 24.1375 14.175C23.3438 10.6875 20.9813 8.39375 17.5938 7.8125C16.6375 7.65 15.3 7.65 14.3563 7.81875ZM18.7813 10.65C20.7563 11.6 22.2188 14.2938 22.2563 17.0375C22.2625 17.675 22.2125 17.825 21.9188 18C21.6625 18.1563 21.4563 18.1563 21.2 18C20.9313 17.8375 20.8125 17.5375 20.8125 17.0438C20.8125 15.825 20.3313 14.3063 19.6188 13.275C19.1875 12.65 18.7063 12.2313 18.0813 11.9313C17.5125 11.6625 17.375 11.4938 17.375 11.0875C17.375 10.9125 17.425 10.8125 17.5875 10.65C17.875 10.3625 18.1875 10.3625 18.7813 10.65Z" fill="#DD2A7B"/>
<path d="M0.46875 15.3375C0.15625 15.475 0.03125 15.6625 0.03125 16C0.03125 16.3375 0.15625 16.525 0.48125 16.6625C0.75 16.7813 4.79375 16.7813 5.125 16.6688C5.375 16.5813 5.625 16.25 5.625 16C5.625 15.75 5.375 15.4188 5.125 15.3313C4.8 15.2188 0.725 15.225 0.46875 15.3375Z" fill="#DD2A7B"/>
<path d="M26.875 15.3313C26.625 15.4188 26.375 15.75 26.375 16C26.375 16.25 26.625 16.5813 26.875 16.6688C27.15 16.7625 31.1125 16.7813 31.4437 16.6875C31.7938 16.5875 31.9688 16.3625 31.9688 16C31.9688 15.6563 31.8438 15.475 31.5188 15.3375C31.25 15.2188 27.2063 15.2188 26.875 15.3313Z" fill="#DD2A7B"/>
<path d="M5.92495 27.2437C4.2437 27.7 3.01245 29.1312 2.83745 30.8312L2.7937 31.25H15.9937H29.1874V31.0437C29.1812 30.625 28.9937 29.95 28.7187 29.3875C28.2374 28.4187 27.4312 27.7125 26.3624 27.325L25.9062 27.1562L16.1249 27.1437C6.8312 27.1312 6.32495 27.1375 5.92495 27.2437Z" fill="#DD2A7B"/>
</svg>
